<?xml version="1.0" encoding="UTF-8"?>
<svg width="125px" height="44px" viewBox="0 0 125 44" version="1.1" xmlns="http://www.w3.org/2000/svg" xmlns:xlink="http://www.w3.org/1999/xlink">
    <!-- Generator: Sketch 64 (93537) - https://sketch.com -->
    <title>KurzGedanke Logo</title>
    <desc>Created with Sketch.</desc>
    <defs>
        <linearGradient x1="50%" y1="0%" x2="50%" y2="100%" id="linearGradient-1">
            <stop stop-color="#694FE9" offset="0%"></stop>
            <stop stop-color="#E62FBE" offset="100%"></stop>
        </linearGradient>
        <path d="M14.3745808,18.5546218 L14.6112312,18.5615126 C15.4682215,18.6120448 16.2072021,18.9405042 16.828173,19.5468908 C17.5055958,20.2084034 17.8443071,20.9989916 17.8443071,21.9186555 L17.8443071,21.9186555 L17.8443071,23.2739496 L14.5480671,23.2739496 L14.5480671,22.6205042 L14.5468432,22.4772362 C14.5403158,22.114709 14.5076787,21.9083473 14.448932,21.8581513 C14.382842,21.8016807 14.1267432,21.7734454 13.6806355,21.7734454 L13.6806355,21.7734454 L4.13888791,21.7734454 L3.99217417,21.7744911 C3.62092772,21.7800685 3.40960282,21.8079552 3.35819947,21.8581513 C3.30422595,21.9108571 3.27544007,22.1357356 3.27184184,22.5327866 L3.27184184,22.5327866 L3.27145631,31.9139496 C3.27145631,32.3657143 3.3003707,32.6198319 3.35819947,32.6763025 C3.41217299,32.7290084 3.64246002,32.7571182 4.04906055,32.7606319 L4.04906055,32.7606319 L13.6806355,32.7610084 L13.8390192,32.7596849 C14.187799,32.7535084 14.3911033,32.7257143 14.448932,32.6763025 C14.5150221,32.6198319 14.5480671,32.3657143 14.5480671,31.9139496 L14.5480671,31.9139496 L14.5480671,29.3243697 L10.5083142,29.3243697 L10.5083142,26.1055462 L17.8443071,26.1055462 L17.8443071,32.6157983 L17.8372507,32.8430252 C17.7855031,33.6663305 17.4491439,34.3811765 16.828173,34.987563 C16.1507502,35.6490756 15.3328861,35.9798319 14.3745808,35.9798319 L14.3745808,35.9798319 L3.44494263,35.9798319 L3.21225066,35.9729412 C2.36914387,35.922409 1.63710503,35.5939496 1.01613416,34.987563 C0.338711386,34.3260504 1.419212e-12,33.5354622 1.419212e-12,32.6157983 L1.419212e-12,32.6157983 L1.419212e-12,21.9186555 L0.0070564872,21.6914286 C0.05880406,20.8681232 0.395163283,20.1532773 1.01613416,19.5468908 C1.69355693,18.8853782 2.50315975,18.5546218 3.44494263,18.5546218 L3.44494263,18.5546218 L14.3745808,18.5546218 Z M31.3089955,21.9428571 L31.5416014,21.9496639 C32.3840772,21.9995798 33.1120141,22.3240336 33.7254121,22.9230252 C34.3945736,23.5764706 34.7291544,24.3630252 34.7291544,25.2826891 L34.7291544,25.2826891 L34.7291544,30.5586555 L23.3781924,30.5586555 L23.3781924,31.9623529 L23.3792633,32.1056209 C23.3849747,32.4681481 23.4135322,32.6745098 23.4649355,32.7247059 C23.518909,32.7774118 23.7491961,32.8055216 24.1557966,32.8090353 L24.1557966,32.8090353 L34.7291544,32.8094118 L34.7291544,35.9798319 L23.5516787,35.9798319 L23.3190728,35.9730252 C22.476597,35.9231092 21.7486601,35.5986555 21.1352621,34.9996639 C20.4661006,34.3462185 20.1315198,33.5596639 20.1315198,32.64 L20.1315198,32.64 L20.1315198,25.2826891 L20.1384902,25.0555462 C20.1896067,24.2328571 20.521864,23.5220168 21.1352621,22.9230252 C21.8044236,22.2695798 22.6098958,21.9428571 23.5516787,21.9428571 L23.5516787,21.9428571 L31.3089955,21.9428571 Z M50.9046884,-6.91506128e-13 L50.9046884,7.09109244 L55.0931438,7.09109244 L61.1899488,-6.91506128e-13 L64.7588102,-6.91506128e-13 L64.7588102,0.919663866 L58.067195,8.71260504 L64.7835939,16.5055462 L64.7835939,17.4252101 L61.1899488,17.4252101 L55.0931438,10.3341176 L50.9046884,10.3341176 L50.9046884,17.4252101 L50.895,17.425 L50.8952726,35.9798319 L39.6930131,35.9798319 L39.4604072,35.9730252 C38.6179315,35.9231092 37.8899946,35.5986555 37.2765965,34.9996639 C36.607435,34.3462185 36.2728543,33.5596639 36.2728543,32.64 L36.2728543,32.64 L36.2728543,25.2826891 L36.2798247,25.0555462 C36.3309412,24.2328571 36.6631985,23.5220168 37.2765965,22.9230252 C37.9457581,22.2695798 38.7512303,21.9428571 39.6930131,21.9428571 L39.6930131,21.9428571 L47.6486001,21.9428571 L47.6486001,17.3445378 L47.65,17.344 L47.6084483,-6.91506128e-13 L50.9046884,-6.91506128e-13 Z M64.3847448,21.9428571 L64.6173507,21.9496639 C65.4598264,21.9995798 66.1877633,22.3240336 66.8011614,22.9230252 C67.4703229,23.5764706 67.8049036,24.3630252 67.8049036,25.2826891 L67.8049036,25.2826891 L67.8049036,35.9798319 L56.6274279,35.9798319 L56.394822,35.9730252 C55.5523463,35.9231092 54.8244094,35.5986555 54.2110113,34.9996639 C53.5418498,34.3462185 53.207269,33.5596639 53.207269,32.64 L53.207269,32.64 L53.207269,27.3640336 L64.5582311,27.3640336 L64.5582311,25.9603361 L64.5571602,25.8170682 C64.5514487,25.4545409 64.5228913,25.2481793 64.4714879,25.1979832 C64.4136592,25.1415126 64.1534297,25.1132773 63.6907995,25.1132773 L63.6907995,25.1132773 L53.207269,25.1132773 L53.207269,21.9428571 L64.3847448,21.9428571 Z M81.0465382,21.9428571 L81.2791441,21.9496639 C82.1216198,21.9995798 82.8495567,22.3240336 83.4629548,22.9230252 C84.1321163,23.5764706 84.4666971,24.3630252 84.4666971,25.2826891 L84.4666971,25.2826891 L84.4666971,35.9798319 L81.2200245,35.9798319 L81.2200245,25.9603361 L81.2189536,25.8170682 C81.2132421,25.4545409 81.1846847,25.2481793 81.1332813,25.1979832 C81.0754526,25.1415126 80.8152231,25.1132773 80.3525929,25.1132773 L80.3525929,25.1132773 L73.9831666,25.1132773 L73.8364529,25.1143231 C73.4652064,25.1199004 73.2538815,25.1477871 73.2024782,25.1979832 C73.1446494,25.2544538 73.115735,25.5085714 73.115735,25.9603361 L73.115735,25.9603361 L73.115735,35.9798319 L69.8690625,35.9798319 L69.8690625,21.9428571 L81.0465382,21.9428571 Z M98.2063158,3.38823529 L98.2063158,6.55865546 L90.9198904,6.55865546 L90.7731767,6.55970121 C90.4019302,6.56527856 90.1906053,6.59316527 90.139202,6.64336134 C90.0813732,6.69983193 90.0524588,6.95394958 90.0524588,7.40571429 L90.0524588,7.40571429 L90.0524588,17.4252101 L90.05,17.425 L90.0501498,27.3640336 L92.6028771,27.3640336 L97.7331154,21.9428571 L101.202842,21.9428571 L101.202842,22.8141176 L95.4777932,28.9613445 L101.178058,35.1085714 L101.178058,35.9798319 L97.7331154,35.9798319 L92.6028771,30.5586555 L90.0501498,30.5586555 L90.0501498,35.9798319 L86.8034772,35.9798319 L86.8034772,17.3445378 L86.805,17.344 L86.8057862,6.72806723 L86.8127567,6.50092437 C86.8638732,5.67823529 87.1961305,4.96739496 87.8095285,4.36840336 C88.47869,3.71495798 89.2841622,3.38823529 90.2259451,3.38823529 L90.2259451,3.38823529 L98.2063158,3.38823529 Z M113.552261,21.9428571 L113.784867,21.9496639 C114.627343,21.9995798 115.355279,22.3240336 115.968678,22.9230252 C116.637839,23.5764706 116.97242,24.3630252 116.97242,25.2826891 L116.97242,25.2826891 L116.97242,30.5586555 L105.621458,30.5586555 L105.621458,31.9623529 L105.622529,32.1056209 C105.62824,32.4681481 105.656798,32.6745098 105.708201,32.7247059 C105.762174,32.7774118 105.992461,32.8055216 106.399062,32.8090353 L106.399062,32.8090353 L116.97242,32.8094118 L116.97242,35.9798319 L105.794944,35.9798319 L105.562338,35.9730252 C104.719862,35.9231092 103.991926,35.5986555 103.378527,34.9996639 C102.709366,34.3462185 102.374785,33.5596639 102.374785,32.64 L102.374785,32.64 L102.374785,25.2826891 L102.381756,25.0555462 C102.432872,24.2328571 102.765129,23.5220168 103.378527,22.9230252 C104.047689,22.2695798 104.853161,21.9428571 105.794944,21.9428571 L105.794944,21.9428571 L113.552261,21.9428571 Z M46.7811685,25.1132773 L40.4117422,25.1132773 L40.2650284,25.1143231 C39.893782,25.1199004 39.6824571,25.1477871 39.6310537,25.1979832 C39.573225,25.2544538 39.5443106,25.5085714 39.5443106,25.9603361 L39.5443106,25.9603361 L39.5443106,31.9623529 L39.5453815,32.1056209 C39.551093,32.4681481 39.5796504,32.6745098 39.6310537,32.7247059 C39.6850273,32.7774118 39.9153143,32.8055216 40.3219148,32.8090353 L40.3219148,32.8090353 L46.7811685,32.8094118 C47.2437987,32.8094118 47.5040281,32.7811765 47.5618569,32.7247059 C47.6196857,32.6682353 47.6486001,32.4141176 47.6486001,31.9623529 L47.6486001,31.9623529 L47.6486001,25.9603361 L47.6475292,25.8170682 C47.6418177,25.4545409 47.6132603,25.2481793 47.5618569,25.1979832 C47.5040281,25.1415126 47.2437987,25.1132773 46.7811685,25.1132773 L46.7811685,25.1132773 Z M64.5582311,30.2198319 L56.4539416,30.2198319 L56.4539416,31.9623529 L56.4550125,32.1056209 C56.460724,32.4681481 56.4892814,32.6745098 56.5406847,32.7247059 C56.5946583,32.7774118 56.8249453,32.8055216 57.2315458,32.8090353 L57.2315458,32.8090353 L64.5582311,32.8094118 L64.5582311,30.2198319 Z M30.6150503,25.1132773 L24.245624,25.1132773 L24.0989102,25.1143231 C23.7276638,25.1199004 23.5163389,25.1477871 23.4649355,25.1979832 C23.4071067,25.2544538 23.3781924,25.5085714 23.3781924,25.9603361 L23.3781924,25.9603361 L23.3781924,27.7028571 L31.4824819,27.7028571 L31.4824819,25.9603361 L31.481411,25.8170682 C31.4756995,25.4545409 31.447142,25.2481793 31.3957387,25.1979832 C31.3379099,25.1415126 31.0776804,25.1132773 30.6150503,25.1132773 L30.6150503,25.1132773 Z M112.858316,25.1132773 L106.488889,25.1132773 L106.342176,25.1143231 C105.970929,25.1199004 105.759604,25.1477871 105.708201,25.1979832 C105.650372,25.2544538 105.621458,25.5085714 105.621458,25.9603361 L105.621458,25.9603361 L105.621458,27.7028571 L113.725747,27.7028571 L113.725747,25.9603361 L113.724676,25.8170682 C113.718965,25.4545409 113.690407,25.2481793 113.639004,25.1979832 C113.581175,25.1415126 113.320946,25.1132773 112.858316,25.1132773 L112.858316,25.1132773 Z M71.6805859,3.38823529 L71.6805859,13.4077311 L71.6816569,13.5509991 C71.6873683,13.9135263 71.7159258,14.119888 71.7673291,14.170084 C71.8213026,14.2227899 72.0515897,14.2508997 72.4581902,14.2544134 L72.4581902,14.2544134 L78.9174438,14.2547899 C79.380074,14.2547899 79.6403035,14.2265546 79.6981323,14.170084 C79.7559611,14.1136134 79.7848754,13.8594958 79.7848754,13.4077311 L79.7848754,13.4077311 L79.7848754,3.38823529 L83.031548,3.38823529 L83.031548,14.0853782 L83.0245776,14.312521 C82.9734611,15.1352101 82.6412038,15.8460504 82.0278057,16.445042 C81.3586442,17.0984874 80.553172,17.4252101 79.6113891,17.4252101 L79.6113891,17.4252101 L71.8540723,17.4252101 L71.6214664,17.4184034 C70.7789906,17.3684874 70.0510537,17.0440336 69.4376557,16.445042 C68.7684942,15.7915966 68.4339134,15.005042 68.4339134,14.0853782 L68.4339134,14.0853782 L68.4339134,3.38823529 L71.6805859,3.38823529 Z M116.974729,3.38823529 L116.974729,6.84907563 L107.16036,14.2547899 L116.974729,14.2547899 L116.974729,17.4252101 L102.377094,17.4252101 L102.377094,13.9643697 L112.191463,6.55865546 L102.377094,6.55865546 L102.377094,3.38823529 L116.974729,3.38823529 Z" id="path-2"></path>
    </defs>
    <g id="Symbols" stroke="none" stroke-width="1" fill="none" fill-rule="evenodd">
        <g id="dark-/-mobil-/-post-/-heading" transform="translate(-229.000000, -16.000000)">
            <g id="ci-/-KurzGedanke-Logo" transform="translate(291.500000, 38.000000) rotate(-360.000000) translate(-291.500000, -38.000000) translate(233.000000, 20.000000)">
                <g id="KurzGedanke-Logo">
                    <g id="Group" fill-rule="nonzero">
                        <g id="Combined-Shape">
                            <use fill="#000000" xlink:href="#path-2"></use>
                            <use fill="url(#linearGradient-1)" xlink:href="#path-2"></use>
                        </g>
                    </g>
                </g>
            </g>
        </g>
    </g>
</svg>