<?xml version="1.0" encoding="UTF-8"?>
<svg width="40px" height="40px" viewBox="0 0 40 40" version="1.1" xmlns="http://www.w3.org/2000/svg" xmlns:xlink="http://www.w3.org/1999/xlink">
    <!-- Generator: Sketch 64 (93537) - https://sketch.com -->
    <title>liberapay</title>
    <desc>Created with Sketch.</desc>
    <defs>
        <filter x="-3.2%" y="-37.5%" width="106.4%" height="175.0%" filterUnits="objectBoundingBox" id="filter-1">
            <feOffset dx="0" dy="2" in="SourceAlpha" result="shadowOffsetOuter1"></feOffset>
            <feGaussianBlur stdDeviation="2" in="shadowOffsetOuter1" result="shadowBlurOuter1"></feGaussianBlur>
            <feColorMatrix values="0 0 0 0 0   0 0 0 0 0   0 0 0 0 0  0 0 0 0.5 0" type="matrix" in="shadowBlurOuter1" result="shadowMatrixOuter1"></feColorMatrix>
            <feMerge>
                <feMergeNode in="shadowMatrixOuter1"></feMergeNode>
                <feMergeNode in="SourceGraphic"></feMergeNode>
            </feMerge>
        </filter>
    </defs>
    <g id="Symbols" stroke="none" stroke-width="1" fill="none" fill-rule="evenodd">
        <g id="dark-/-desktop-/-footer" transform="translate(-757.000000, -57.000000)" fill-rule="nonzero">
            <g id="Icons" filter="url(#filter-1)" transform="translate(533.000000, 59.000000)">
                <g id="liberapay" transform="translate(228.000000, 0.000000)">
                    <g id="Icon" fill="#FFFFFF">
                        <path d="M3.09333333,0 C1.38523737,0.000735772649 0.000735772649,1.38523737 0,3.09333333 L0,28.9066667 C0.000735772649,30.6147626 1.38523737,31.9992642 3.09333333,32 L28.9066667,32 C30.6150675,32 32,30.6150675 32,28.9066667 L32,3.09333333 C32,1.38493251 30.6150675,0 28.9066667,0 L3.09333333,0 Z M15.3706667,5.30666667 L12.344,17.8466667 C12.2895155,18.0827177 12.2569329,18.3232935 12.2466667,18.5653333 C12.2354517,18.7645353 12.2768365,18.9631825 12.3666667,19.1413333 C12.4667108,19.3209402 12.6232583,19.4624892 12.812,19.544 C13.0213333,19.6466667 13.316,19.712 13.6933333,19.74 L13.04,22.4173333 C12.0106667,22.4173333 11.2,22.284 10.6133333,22.0173333 C10.0253333,21.7466667 9.604,21.3813333 9.35066667,20.916 C9.08949415,20.4241922 8.96169767,19.8725528 8.98,19.316 C8.98666667,18.7133333 9.07066667,18.072 9.23066667,17.3893333 L11.996,5.82933333 L15.3706667,5.30666667 Z M20.5706667,10.4906667 C21.384,10.4906667 22.084,10.6133333 22.672,10.86 C23.2586667,11.1066667 23.7413333,11.444 24.1186667,11.8733333 C24.496,12.3 24.776,12.8013333 24.9573333,13.3746667 C25.1386667,13.948 25.2293333,14.5613333 25.2293333,15.2133333 L25.2293333,15.2146667 C25.2293333,16.2733333 25.056,17.2413333 24.7066667,18.12 C24.3787626,18.9663103 23.8866461,19.7393773 23.2586667,20.3946667 C22.6308588,21.0411026 21.8746264,21.5488911 21.0386667,21.8853333 C20.1746667,22.2413333 19.2346667,22.4186667 18.22,22.4186667 C17.7266667,22.4186667 17.2333333,22.3746667 16.74,22.288 L15.76,26.2293333 L12.5373333,26.2293333 L16.1506667,11.1653333 C16.7306667,10.992 17.396,10.8346667 18.1426667,10.6973333 C18.9440388,10.5548097 19.7567349,10.4856345 20.5706667,10.4906667 L20.5706667,10.4906667 Z M20.1573333,13.212 C19.7183896,13.2093768 19.280399,13.2531759 18.8506667,13.3426667 L17.3266667,19.6786667 C17.5733333,19.7373333 17.8773333,19.7653333 18.24,19.7653333 C18.8066667,19.7653333 19.3226667,19.66 19.7866667,19.4493333 C20.241936,19.2459084 20.6470185,18.945055 20.9733333,18.568 C21.2986667,18.1906667 21.5533333,17.7373333 21.7346667,17.208 C21.9218671,16.6426664 22.0137866,16.0501458 22.0066667,15.4546667 C22.0066667,14.8306667 21.868,14.3013333 21.5933333,13.8653333 C21.3173333,13.4306667 20.8386667,13.212 20.1573333,13.212 L20.1573333,13.212 Z" id="Icon-Shape"></path>
                    </g>
                    <rect id="ViewBox" x="0" y="0" width="32" height="32"></rect>
                </g>
            </g>
        </g>
    </g>
</svg>