<?xml version="1.0" encoding="UTF-8"?>
<svg width="38px" height="40px" viewBox="0 0 38 40" version="1.1" xmlns="http://www.w3.org/2000/svg" xmlns:xlink="http://www.w3.org/1999/xlink">
    <!-- Generator: Sketch 64 (93537) - https://sketch.com -->
    <title>mastodon</title>
    <desc>Created with Sketch.</desc>
    <defs>
        <filter x="-3.2%" y="-37.5%" width="106.4%" height="175.0%" filterUnits="objectBoundingBox" id="filter-1">
            <feOffset dx="0" dy="2" in="SourceAlpha" result="shadowOffsetOuter1"></feOffset>
            <feGaussianBlur stdDeviation="2" in="shadowOffsetOuter1" result="shadowBlurOuter1"></feGaussianBlur>
            <feColorMatrix values="0 0 0 0 0   0 0 0 0 0   0 0 0 0 0  0 0 0 0.5 0" type="matrix" in="shadowBlurOuter1" result="shadowMatrixOuter1"></feColorMatrix>
            <feMerge>
                <feMergeNode in="shadowMatrixOuter1"></feMergeNode>
                <feMergeNode in="SourceGraphic"></feMergeNode>
            </feMerge>
        </filter>
    </defs>
    <g id="Symbols" stroke="none" stroke-width="1" fill="none" fill-rule="evenodd">
        <g id="dark-/-desktop-/-footer" transform="translate(-644.000000, -57.000000)" fill-rule="nonzero">
            <g id="Icons" filter="url(#filter-1)" transform="translate(533.000000, 59.000000)">
                <g id="mastodon" transform="translate(114.000000, 0.000000)">
                    <g id="Icon" transform="translate(1.000000, 0.000000)" fill="#FFFFFF">
                        <path d="M29.924,10.5053333 C29.924,3.564 25.376,1.52933333 25.376,1.52933333 C23.0826667,0.476 19.144,0.0333333333 15.0546667,0 L14.9533333,0 C10.8626667,0.0333333333 6.92666667,0.476 4.63333333,1.52933333 C4.63333333,1.52933333 0.0853333333,3.564 0.0853333333,10.5053333 C0.0853333333,12.0946667 0.0546666667,13.996 0.105333333,16.0106667 C0.270666667,22.8 1.35066667,29.4893333 7.62666667,31.1506667 C10.52,31.916 13.0053333,32.0773333 15.0066667,31.9666667 C18.636,31.7666667 20.6733333,30.6706667 20.6733333,30.6706667 L20.5533333,28.0373333 C20.5533333,28.0373333 17.96,28.8546667 15.048,28.756 C12.1613333,28.6573333 9.116,28.4453333 8.64933333,24.9013333 C8.60552284,24.5720543 8.58414025,24.2401786 8.58533333,23.908 C8.58533333,23.908 11.4186667,24.6013333 15.008,24.7653333 C17.2026667,24.8653333 19.2613333,24.636 21.352,24.388 C25.3613333,23.9093333 28.852,21.4386667 29.2906667,19.1813333 C29.98,15.628 29.924,10.5053333 29.924,10.5053333 L29.924,10.5053333 Z M24.5586667,19.4506667 L21.2293333,19.4506667 L21.2293333,11.292 C21.2293333,9.572 20.5053333,8.7 19.0586667,8.7 C17.4586667,8.7 16.656,9.73466667 16.656,11.7826667 L16.656,16.248 L13.3453333,16.248 L13.3453333,11.7813333 C13.3453333,9.73333333 12.5426667,8.69866667 10.9426667,8.69866667 C9.496,8.69866667 8.772,9.572 8.772,11.2906667 L8.772,19.4493333 L5.44266667,19.4493333 L5.44266667,11.0453333 C5.44266667,9.32666667 5.88,7.96133333 6.75866667,6.952 C7.66533333,5.94133333 8.85066667,5.424 10.324,5.424 C12.028,5.424 13.3186667,6.07866667 14.172,7.38933333 L15,8.78 L15.8293333,7.38933333 C16.6826667,6.07866667 17.9733333,5.424 19.6773333,5.424 C21.1493333,5.424 22.336,5.94133333 23.2426667,6.952 C24.12,7.96133333 24.5573333,9.32666667 24.5573333,11.0453333 L24.5573333,19.4506667 L24.5586667,19.4506667 Z" id="Icon-Shape"></path>
                    </g>
                    <rect id="ViewBox" x="0" y="0" width="32" height="32"></rect>
                </g>
            </g>
        </g>
    </g>
</svg>