<?xml version="1.0" encoding="UTF-8"?>
<svg width="36px" height="40px" viewBox="0 0 36 40" version="1.1" xmlns="http://www.w3.org/2000/svg" xmlns:xlink="http://www.w3.org/1999/xlink">
    <!-- Generator: Sketch 64 (93537) - https://sketch.com -->
    <title>twitch</title>
    <desc>Created with Sketch.</desc>
    <defs>
        <filter x="-3.2%" y="-37.5%" width="106.4%" height="175.0%" filterUnits="objectBoundingBox" id="filter-1">
            <feOffset dx="0" dy="2" in="SourceAlpha" result="shadowOffsetOuter1"></feOffset>
            <feGaussianBlur stdDeviation="2" in="shadowOffsetOuter1" result="shadowBlurOuter1"></feGaussianBlur>
            <feColorMatrix values="0 0 0 0 0   0 0 0 0 0   0 0 0 0 0  0 0 0 0.5 0" type="matrix" in="shadowBlurOuter1" result="shadowMatrixOuter1"></feColorMatrix>
            <feMerge>
                <feMergeNode in="shadowMatrixOuter1"></feMergeNode>
                <feMergeNode in="SourceGraphic"></feMergeNode>
            </feMerge>
        </filter>
    </defs>
    <g id="Symbols" stroke="none" stroke-width="1" fill="none" fill-rule="evenodd">
        <g id="dark-/-desktop-/-footer" transform="translate(-816.000000, -57.000000)" fill-rule="nonzero">
            <g id="Icons" filter="url(#filter-1)" transform="translate(533.000000, 59.000000)">
                <g id="twitch" transform="translate(285.000000, 0.000000)">
                    <g id="Icon" transform="translate(2.000000, 0.000000)" fill="#FFFFFF">
                        <path d="M13.428,6.28533333 L15.7146667,6.28533333 L15.7146667,13.1426667 L13.4266667,13.1426667 L13.428,6.28533333 Z M19.7146667,6.28533333 L22,6.28533333 L22,13.1426667 L19.7146667,13.1426667 L19.7146667,6.28533333 Z M6,0 L0.285333333,5.71466667 L0.285333333,26.2853333 L7.14266667,26.2853333 L7.14266667,32 L12.8573333,26.2853333 L17.428,26.2853333 L27.7146667,16 L27.7146667,0 L6,0 Z M25.428,14.8573333 L20.8573333,19.428 L16.2853333,19.428 L12.2853333,23.428 L12.2853333,19.428 L7.14266667,19.428 L7.14266667,2.28533333 L25.428,2.28533333 L25.428,14.8573333 Z" id="Icon-Shape"></path>
                    </g>
                    <rect id="ViewBox" x="0" y="0" width="32" height="32"></rect>
                </g>
            </g>
        </g>
    </g>
</svg>