<?xml version="1.0" encoding="UTF-8"?>
<svg width="44px" height="44px" viewBox="0 0 44 44" version="1.1" xmlns="http://www.w3.org/2000/svg" xmlns:xlink="http://www.w3.org/1999/xlink">
    <!-- Generator: Sketch 64 (93537) - https://sketch.com -->
    <title>Hambburger</title>
    <desc>Created with Sketch.</desc>
    <g id="Symbols" stroke="none" stroke-width="1" fill="none" fill-rule="evenodd">
        <g id="dark-/-mobil-/-post-/-heading" transform="translate(-21.000000, -16.000000)" fill="#FFFFFF">
            <g id="ci-/-Hambburger" transform="translate(25.000000, 20.000000)">
                <path d="M31.3072724,29.9995237 C28.0113358,33.6822963 23.2214358,36 17.8902071,36 C12.5589784,36 7.76907834,33.6822963 4.47314174,29.9995237 Z M35.7803033,20.0004182 C35.5443066,22.1348212 34.9351147,24.1567411 34.0194268,25.9994787 L1.76098729,25.9994787 C0.845299391,24.1567411 0.236107497,22.1348212 0.000110844823,20.0004182 Z M34.0189283,9.99951809 C34.935037,11.8428136 35.5444546,13.8654247 35.7804141,16.0005846 L2.27734498e-14,16.0005846 C0.23595951,13.8654247 0.845377097,11.8428136 1.76148585,9.99951809 Z M17.8902071,0 C23.2209555,0 28.0104728,2.31728612 31.3063816,5.99948106 L4.47403249,5.99948106 C7.76994132,2.31728612 12.5594586,0 17.8902071,0 Z" id="Combined-Shape"></path>
            </g>
        </g>
    </g>
</svg>