<?xml version="1.0" encoding="UTF-8"?>
<svg width="1470px" height="453px" viewBox="0 0 1470 453" version="1.1" xmlns="http://www.w3.org/2000/svg" xmlns:xlink="http://www.w3.org/1999/xlink">
    <!-- Generator: Sketch 64 (93537) - https://sketch.com -->
    <title>KurzGedanke Logo</title>
    <desc>Created with Sketch.</desc>
    <defs>
        <linearGradient x1="50%" y1="0%" x2="50%" y2="100%" id="linearGradient-1">
            <stop stop-color="#694FE9" offset="0%"></stop>
            <stop stop-color="#E62FBE" offset="100%"></stop>
        </linearGradient>
        <path d="M180.603707,233.478992 L181.224905,233.482703 C192.997765,233.623747 203.066427,237.784526 211.430891,245.965042 C219.942101,254.289076 224.197705,264.237311 224.197705,275.809748 L224.197705,275.809748 L224.197705,292.863866 L182.783407,292.863866 L182.783407,284.641345 L182.782628,284.219655 C182.762388,278.798311 182.347467,275.741227 181.537864,275.048403 C180.707502,274.337815 177.48985,273.982521 171.884907,273.982521 L171.884907,273.982521 L52.0014122,273.982521 L51.5806432,273.983155 C46.0309016,274.000064 42.9016081,274.355147 42.1927626,275.048403 C41.5146337,275.711619 41.152965,278.541339 41.1077564,283.537564 L41.1077564,283.537564 L41.1029126,401.583866 C41.1029126,407.268571 41.4661959,410.466218 42.1927626,411.176807 C42.8708914,411.840022 45.7642412,412.193737 50.872812,412.237952 L50.872812,412.237952 L171.884907,412.242689 L172.311348,412.241988 C177.653288,412.224235 180.728794,411.869175 181.537864,411.176807 C182.368226,410.466218 182.783407,407.268571 182.783407,401.583866 L182.783407,401.583866 L182.783407,368.998319 L132.027538,368.998319 L132.027538,328.49479 L224.197705,328.49479 L224.197705,410.415462 L224.19391,411.012588 C224.049695,422.330459 219.795356,432.079652 211.430891,440.260168 C202.919682,448.584202 192.643954,452.746218 180.603707,452.746218 L180.603707,452.746218 L43.2826125,452.746218 L42.6720596,452.742507 C31.0996932,452.601463 21.131278,448.440684 12.7668138,440.260168 C4.25560459,431.936134 1.78074404e-11,421.987899 1.78074404e-11,410.415462 L1.78074404e-11,410.415462 L1.78074404e-11,275.809748 L0.00379512896,275.212622 C0.148010029,263.894751 4.40234958,254.145558 12.7668138,245.965042 C21.2780229,237.641008 31.4499559,233.478992 43.2826125,233.478992 L43.2826125,233.478992 L180.603707,233.478992 Z M393.369431,276.114286 L393.979938,276.117952 C405.550545,276.257275 415.467078,280.367314 423.729537,288.448067 C432.136951,296.670588 436.340658,306.568067 436.340658,318.140504 L436.340658,318.140504 L436.340658,384.529748 L293.726007,384.529748 L293.726688,402.614631 C293.744398,408.035975 294.107454,411.093059 294.815856,411.785882 C295.493985,412.449098 298.387335,412.802813 303.495906,412.847027 L303.495906,412.847027 L436.340658,412.851765 L436.340658,452.746218 L295.905706,452.746218 L295.2952,452.742552 C283.724592,452.603229 273.808059,448.49319 265.545601,440.412437 C257.138187,432.189916 252.93448,422.292437 252.93448,410.72 L252.93448,410.72 L252.93448,318.140504 L252.938228,317.543424 C253.080685,306.227273 257.283142,296.528821 265.545601,288.448067 C273.953014,280.225546 284.07305,276.114286 295.905706,276.114286 L295.905706,276.114286 L393.369431,276.114286 Z M639.571726,-8.70293241e-12 L639.571726,89.2295798 L692.195909,89.2295798 L768.796792,-8.70293241e-12 L813.636333,-8.70293241e-12 L813.636333,11.572437 L729.562194,109.633613 L813.947719,207.69479 L813.947719,219.267227 L768.796792,219.267227 L692.195909,130.037647 L639.571726,130.037647 L639.571726,219.267227 L639.453,219.267 L639.453425,452.746218 L498.707088,452.746218 L498.096581,452.742552 C486.525974,452.603229 476.609441,448.49319 468.346982,440.412437 C459.939568,432.189916 455.735861,422.292437 455.735861,410.72 L455.735861,410.72 L455.735861,318.140504 L455.73961,317.543424 C455.882066,306.227273 460.084524,296.528821 468.346982,288.448067 C476.754396,280.225546 486.874431,276.114286 498.707088,276.114286 L498.707088,276.114286 L598.661898,276.114286 L598.661898,218.252101 L598.678,218.252 L598.157428,-8.70293241e-12 L639.571726,-8.70293241e-12 Z M808.936537,276.114286 L809.547043,276.117952 C821.117651,276.257275 831.034184,280.367314 839.296643,288.448067 C847.704057,296.670588 851.907764,306.568067 851.907764,318.140504 L851.907764,318.140504 L851.907764,452.746218 L711.472812,452.746218 L710.862306,452.742552 C699.291698,452.603229 689.375165,448.49319 681.112706,440.412437 C672.705292,432.189916 668.501585,422.292437 668.501585,410.72 L668.501585,410.72 L668.501585,344.330756 L811.116237,344.330756 L811.116237,326.667563 L811.115556,326.245873 C811.097845,320.824529 810.734789,317.767445 810.026387,317.074622 C809.29982,316.364034 806.03027,316.008739 800.217737,316.008739 L800.217737,316.008739 L668.501585,316.008739 L668.501585,276.114286 L808.936537,276.114286 Z M1018.27702,276.114286 L1018.88752,276.117952 C1030.45813,276.257275 1040.37467,280.367314 1048.63712,288.448067 C1057.04454,296.670588 1061.24825,306.568067 1061.24825,318.140504 L1061.24825,318.140504 L1061.24825,452.746218 L1020.45672,452.746218 L1020.45604,326.245873 C1020.43833,320.824529 1020.07527,317.767445 1019.36687,317.074622 C1018.6403,316.364034 1015.37075,316.008739 1009.55822,316.008739 L1009.55822,316.008739 L929.532093,316.008739 L929.111324,316.009374 C923.561583,316.026282 920.432289,316.381365 919.723444,317.074622 C918.996877,317.78521 918.633594,320.982857 918.633594,326.667563 L918.633594,326.667563 L918.633594,452.746218 L877.842067,452.746218 L877.842067,276.114286 L1018.27702,276.114286 Z M1233.87422,42.6352941 L1233.87422,82.5297479 L1142.32683,82.5297479 L1141.90606,82.530382 C1136.35632,82.5472907 1133.22702,82.9023734 1132.51818,83.5956303 C1131.79161,84.3062185 1131.42833,87.5038655 1131.42833,93.1885714 L1131.42833,93.1885714 L1131.42833,219.267227 L1131.399,219.267 L1131.39932,344.330756 L1163.47205,344.330756 L1227.92889,276.114286 L1271.52288,276.114286 L1271.52288,287.077647 L1199.59279,364.430252 L1271.2115,441.782857 L1271.2115,452.746218 L1227.92889,452.746218 L1163.47205,384.529748 L1131.39932,384.529748 L1131.39932,452.746218 L1090.60779,452.746218 L1090.60779,218.252101 L1090.636,218.252 L1090.6368,84.6615126 L1090.64055,84.064432 C1090.78301,72.7482812 1094.98546,63.049829 1103.24792,54.9690756 C1111.65534,46.7465546 1121.77537,42.6352941 1133.60803,42.6352941 L1133.60803,42.6352941 L1233.87422,42.6352941 Z M1426.68225,276.114286 L1427.29276,276.117952 C1438.86337,276.257275 1448.7799,280.367314 1457.04236,288.448067 C1465.44977,296.670588 1469.65348,306.568067 1469.65348,318.140504 L1469.65348,318.140504 L1469.65348,384.529748 L1327.03883,384.529748 L1327.03883,402.192941 L1327.03951,402.614631 C1327.05722,408.035975 1327.42028,411.093059 1328.12868,411.785882 C1328.80681,412.449098 1331.70016,412.802813 1336.80873,412.847027 L1336.80873,412.847027 L1469.65348,412.851765 L1469.65348,452.746218 L1329.21853,452.746218 L1328.60802,452.742552 C1317.03741,452.603229 1307.12088,448.49319 1298.85842,440.412437 C1290.45101,432.189916 1286.2473,422.292437 1286.2473,410.72 L1286.2473,410.72 L1286.2473,318.140504 L1286.25105,317.543424 C1286.39351,306.227273 1290.59596,296.528821 1298.85842,288.448067 C1307.26584,280.225546 1317.38587,276.114286 1329.21853,276.114286 L1329.21853,276.114286 L1426.68225,276.114286 Z M811.116237,380.266218 L709.293112,380.266218 L709.293793,402.614631 C709.311503,408.035975 709.67456,411.093059 710.382962,411.785882 C711.061091,412.449098 713.954441,412.802813 719.063012,412.847027 L719.063012,412.847027 L811.116237,412.851765 L811.116237,380.266218 Z M587.763399,316.008739 L507.737273,316.008739 L507.316504,316.009374 C501.766763,316.026282 498.637469,316.381365 497.928624,317.074622 C497.202057,317.78521 496.838774,320.982857 496.838774,326.667563 L496.838774,326.667563 L496.838774,402.192941 L496.839455,402.614631 C496.857165,408.035975 497.220221,411.093059 497.928624,411.785882 C498.606753,412.449098 501.500103,412.802813 506.608673,412.847027 L506.608673,412.847027 L588.864,412.847 L588.998476,412.846058 C593.908095,412.799136 596.746719,412.462865 597.514347,411.837243 L597.572048,411.785882 C598.298615,411.075294 598.661898,407.877647 598.661898,402.192941 L598.661217,326.245873 C598.643507,320.824529 598.280451,317.767445 597.572048,317.074622 C596.845482,316.364034 593.575932,316.008739 587.763399,316.008739 L587.763399,316.008739 Z M384.650631,316.008739 L304.624506,316.008739 L304.203737,316.009374 C298.653996,316.026282 295.524702,316.381365 294.815856,317.074622 C294.08929,317.78521 293.726007,320.982857 293.726007,326.667563 L293.726007,348.594286 L395.549131,348.594286 L395.549131,326.667563 L395.54845,326.245873 C395.53074,320.824529 395.167683,317.767445 394.459281,317.074622 C393.732714,316.364034 390.463165,316.008739 384.650631,316.008739 L384.650631,316.008739 Z M1417.96345,316.008739 L1337.93733,316.008739 L1337.51656,316.009374 C1331.96682,316.026282 1328.83752,316.381365 1328.12868,317.074622 C1327.40211,317.78521 1327.03883,320.982857 1327.03883,326.667563 L1327.03883,326.667563 L1327.03883,348.594286 L1428.86195,348.594286 L1428.86127,326.245873 C1428.84356,320.824529 1428.48051,317.767445 1427.7721,317.074622 C1427.04554,316.364034 1423.77599,316.008739 1417.96345,316.008739 L1417.96345,316.008739 Z M900.602234,42.6352941 L900.602915,169.135639 C900.620625,174.556983 900.983681,177.614067 901.692084,178.306891 C902.370213,178.970106 905.263562,179.323821 910.372133,179.368036 L910.372133,179.368036 L991.526859,179.372773 C997.339392,179.372773 1000.60894,179.017479 1001.33551,178.306891 C1002.06207,177.596303 1002.42536,174.398655 1002.42536,168.71395 L1002.42536,168.71395 L1002.42536,42.6352941 L1043.21689,42.6352941 L1043.21689,177.241008 L1043.21314,177.838089 C1043.07068,189.15424 1038.86822,198.852692 1030.60576,206.933445 C1022.19835,215.155966 1012.07831,219.267227 1000.24566,219.267227 L1000.24566,219.267227 L902.781934,219.267227 L902.171427,219.26356 C890.600819,219.124237 880.684286,215.014199 872.421828,206.933445 C864.014414,198.710924 859.810707,188.813445 859.810707,177.241008 L859.810707,177.241008 L859.810707,42.6352941 L900.602234,42.6352941 Z M1469.68249,42.6352941 L1469.68249,86.1842017 L1346.37375,179.372773 L1469.68249,179.372773 L1469.68249,219.267227 L1286.27631,219.267227 L1286.27631,175.718319 L1409.58505,82.5297479 L1286.27631,82.5297479 L1286.27631,42.6352941 L1469.68249,42.6352941 Z" id="path-2"></path>
    </defs>
    <g id="Symbols" stroke="none" stroke-width="1" fill="none" fill-rule="evenodd">
        <g id="KurzGedanke-Logo" fill-rule="nonzero">
            <g id="Group">
                <g>
                    <g id="Combined-Shape">
                        <use fill="#000000" xlink:href="#path-2"></use>
                        <use fill="url(#linearGradient-1)" xlink:href="#path-2"></use>
                        <use fill="#FAFAFA" xlink:href="#path-2"></use>
                    </g>
                </g>
            </g>
        </g>
    </g>
</svg>